<svg width="200" height="200" viewBox="0 0 200 200" fill="none" xmlns="http://www.w3.org/2000/svg">
<g clip-path="url(#clip0_82_69)">
<rect x="1.75016" y="1.22511" width="150.633" height="144.721" rx="14.8919" transform="matrix(0.985994 -0.166782 0.180779 0.983524 -2.84149 47.0258)" fill="#0C1618" stroke="#F7F3E3" stroke-width="3"/>
<rect x="1.68018" y="1.31243" width="150.728" height="144.623" rx="14.8919" transform="matrix(0.993137 -0.116954 0.126985 0.991905 15.9679 32.1863)" fill="#F7F3E3" stroke="#F98C10" stroke-width="3"/>
<rect x="1.60571" y="1.39565" width="150.789" height="144.559" rx="14.8919" transform="matrix(0.997759 -0.0669162 0.0727161 0.997353 36.8784 18.4022)" fill="#F7F3E3" stroke="#0C1618" stroke-width="3"/>
<path d="M79.3868 103.167L66.5035 90.5442L67.3535 103.873L63.538 104.097L61.675 74.8823L65.4904 74.6585L66.3538 88.197L77.5657 73.9502L82.3874 73.6673L70.071 89.0728L84.3762 102.875L79.3868 103.167ZM86.4742 91.1397C86.3245 88.7925 86.6687 86.7108 87.5068 84.8946C88.3431 83.0505 89.5547 81.5911 91.1415 80.5163C92.7562 79.4399 94.5838 78.8419 96.6243 78.7222C98.6369 78.6041 100.411 78.9348 101.948 79.7141C103.485 80.4934 104.658 81.5185 105.469 82.7892L105.202 78.5977L109.059 78.3714L110.524 101.341L106.666 101.567L106.394 97.2917C105.725 98.6773 104.664 99.8614 103.211 100.844C101.785 101.797 100.08 102.332 98.0953 102.448C96.0548 102.568 94.1779 102.173 92.4646 101.264C90.7513 100.355 89.3615 99.0201 88.2953 97.2595C87.2291 95.499 86.6221 93.459 86.4742 91.1397ZM105.931 90.0404C105.821 88.308 105.375 86.8195 104.595 85.5751C103.814 84.3307 102.801 83.4085 101.556 82.8083C100.338 82.1786 99.0157 81.9056 97.5902 81.9892C96.1646 82.0728 94.8863 82.4844 93.755 83.2239C92.6238 83.9634 91.7498 84.9963 91.133 86.3227C90.5162 87.6491 90.263 89.1785 90.3735 90.911C90.4857 92.6714 90.9331 94.1878 91.7157 95.4602C92.4965 96.7046 93.4961 97.6416 94.7146 98.2713C95.9314 98.8731 97.2525 99.1322 98.6781 99.0485C100.104 98.9649 101.382 98.5534 102.513 97.8139C103.671 97.0448 104.558 95.997 105.175 94.6706C105.79 93.3163 106.042 91.7729 105.931 90.0404ZM119.56 81.4998C120.147 80.1471 121.033 79.0714 122.216 78.2728C123.428 77.4724 124.928 77.0198 126.717 76.9149L126.968 80.8549L125.962 80.9139C121.685 81.1648 119.695 83.6095 119.99 88.2481L120.787 100.739L116.972 100.963L115.507 77.9932L119.322 77.7694L119.56 81.4998ZM130.449 88.5601C130.3 86.2129 130.644 84.1312 131.482 82.315C132.318 80.4709 133.53 79.0115 135.117 77.9367C136.731 76.8603 138.573 76.2614 140.641 76.1401C142.43 76.0352 144.12 76.3568 145.711 77.1049C147.3 77.825 148.543 78.832 149.439 80.1257L148.664 67.9704L152.521 67.7441L154.499 98.7611L150.642 98.9874L150.366 94.6702C149.699 96.0837 148.653 97.281 147.229 98.262C145.802 99.2152 144.097 99.75 142.112 99.8664C140.072 99.9861 138.181 99.5921 136.44 98.6846C134.726 97.7754 133.337 96.4405 132.271 94.6799C131.204 92.9193 130.597 90.8794 130.449 88.5601ZM149.907 87.4608C149.796 85.7283 149.35 84.2399 148.57 82.9955C147.789 81.7511 146.776 80.8288 145.532 80.2287C144.313 79.599 142.991 79.326 141.565 79.4096C140.14 79.4932 138.861 79.9048 137.73 80.6443C136.599 81.3838 135.725 82.4167 135.108 83.7431C134.491 85.0695 134.238 86.5989 134.349 88.3314C134.461 90.0918 134.908 91.6082 135.691 92.8805C136.472 94.1249 137.471 95.062 138.69 95.6917C139.907 96.2935 141.228 96.5525 142.653 96.4689C144.079 96.3853 145.357 95.9737 146.488 95.2342C147.646 94.4651 148.533 93.4174 149.15 92.091C149.765 90.7367 150.017 89.1933 149.907 87.4608ZM169.105 98.283C167.344 98.3863 165.746 98.1855 164.311 97.6807C162.874 97.1479 161.716 96.3744 160.838 95.3601C159.958 94.3179 159.432 93.1006 159.259 91.7084L163.2 91.4772C163.385 92.6163 163.975 93.5213 164.972 94.192C165.997 94.8612 167.292 95.1498 168.857 95.058C170.311 94.9727 171.436 94.5842 172.234 93.8923C173.031 93.2004 173.399 92.3654 173.336 91.3874C173.272 90.3815 172.778 89.6672 171.853 89.2447C170.927 88.7941 169.512 88.3863 167.609 88.0211C165.875 87.6741 164.449 87.3089 163.33 86.9258C162.238 86.5131 161.272 85.8826 160.432 85.0343C159.619 84.1564 159.165 82.977 159.07 81.496C158.995 80.3224 159.276 79.2261 159.913 78.2071C160.549 77.1881 161.492 76.3614 162.742 75.7272C163.991 75.0649 165.44 74.6854 167.089 74.5887C169.632 74.4395 171.728 74.9617 173.375 76.1552C175.022 77.3488 175.973 79.06 176.228 81.2889L172.412 81.5127C172.252 80.3161 171.701 79.3808 170.76 78.7067C169.847 78.031 168.65 77.7366 167.169 77.8235C165.799 77.9039 164.728 78.2612 163.955 78.8956C163.181 79.5299 162.825 80.3221 162.886 81.2722C162.934 82.0267 163.211 82.6415 163.719 83.1166C164.252 83.5621 164.892 83.9172 165.638 84.182C166.411 84.4171 167.466 84.6778 168.803 84.964C170.48 85.3144 171.85 85.6827 172.913 86.0692C173.974 86.4276 174.896 87.0187 175.678 87.8423C176.488 88.6643 176.951 89.773 177.068 91.1685C177.148 92.426 176.871 93.5782 176.236 94.6251C175.602 95.6721 174.66 96.5267 173.412 97.1889C172.19 97.8216 170.754 98.1862 169.105 98.283Z" fill="#0C1618"/>
</g>
<defs>
<clipPath id="clip0_82_69">
<rect width="200" height="200" fill="white"/>
</clipPath>
</defs>
</svg>
